# xmcd
#
# Track frame offsets: 
#        182
#        19680
#        29852
#        40410
#        62740
#        73675
#        91387
#        104940
#        114050
#        131747
#
# Disc length: 2099 seconds
#
# Revision: 3
# Processed by: cddbd v1.5.2PL0 Copyright (c) Steve Scherf et al.
# Submitted via: ExactAudioCopy v0.99pb5
#
DISCID=9108310a
DTITLE=C.C. Adcock - Adcock, C.C.
DYEAR=1994
DGENRE=Cajun Rock/blues
TTITLE0=Couchemal
TTITLE1=Beaux's Bounce
TTITLE2=Cindy Lou
TTITLE3=What I Like (Womens)
TTITLE4=Sally Sue Brown
TTITLE5=Kissin' Kouzans
TTITLE6=I'm Just a Fool to Care
TTITLE7=Good Lovin'
TTITLE8=Do Right Lil' Lady
TTITLE9=Done Most Everything
EXTD=
EXTT0=
EXTT1=
EXTT2=
EXTT3=
EXTT4=
EXTT5=
EXTT6=
EXTT7=
EXTT8=
EXTT9=
PLAYORDER=
